<svg xmlns="http://www.w3.org/2000/svg" width="146" height="148" viewBox="0 0 146 148">
  <g id="Group_532" data-name="Group 532" transform="translate(-37 -609)">
    <g id="Group_467" data-name="Group 467" transform="translate(1 193)">
      <g id="Group_4" data-name="Group 4" transform="translate(-1 -257)">
        <rect id="Rectangle_1" data-name="Rectangle 1" width="146" height="148" rx="20" transform="translate(37 673)" fill="#06a"/>
      </g>
      <g id="Group_151" data-name="Group 151" transform="translate(24 -63)">
        <text id="DTC" transform="translate(85 605)" fill="#fff" font-size="22" font-family="Poppins-Regular, Poppins"><tspan x="-22.22" y="0">DTC</tspan></text>
      </g>
    </g>
    <path id="Subtraction_1" data-name="Subtraction 1" d="M-3626.942-595.425h-34.5l-9.131-5.9h-10.788l-4.283-5.1v-14.668l-4.283-.159v15.067c0,2.158-1.312,2.924-2.435,2.925a2.781,2.781,0,0,1-1.81-.678,2.42,2.42,0,0,1-.832-1.845v-40.626a3.248,3.248,0,0,1,.8-2.283,2.4,2.4,0,0,1,1.758-.766c1.213,0,2.518.954,2.518,3.049v15.306h4.283v-12.7l4.565-4.588h6.7l4.742-4.766h9.25v-1.9h-4.781c-1.237,0-1.9-1.328-1.9-2.578a2.839,2.839,0,0,1,.463-1.632,1.7,1.7,0,0,1,1.441-.733h20.416a2.34,2.34,0,0,1,2.142,2.6,2.749,2.749,0,0,1-.525,1.683,1.966,1.966,0,0,1-1.617.758h-5.355v1.656h10.312l7.853,7.892h9.439v5.1l2.58-2.593h6.621l5.711,8.249v25.693l-4.442,9.388h-7.446l-2.708-3.668-.317,3.189-4.442,4.623Zm-24.175-29.249a5.594,5.594,0,0,0-2.775.682,4.884,4.884,0,0,0-1.9,1.9,5.635,5.635,0,0,0-.683,2.783,5.588,5.588,0,0,0,.683,2.775,4.885,4.885,0,0,0,1.9,1.9,5.643,5.643,0,0,0,2.783.682,5.389,5.389,0,0,0,2.37-.509,5.141,5.141,0,0,0,1.732-1.335,5.053,5.053,0,0,0,.967-1.785v-2.385h-5.58v1.89h3.255a2.732,2.732,0,0,1-.952,1.38,2.633,2.633,0,0,1-1.6.48,2.879,2.879,0,0,1-2.167-.818,3.147,3.147,0,0,1-.788-2.272,3.119,3.119,0,0,1,.75-2.183,2.59,2.59,0,0,1,2-.817,2.682,2.682,0,0,1,1.252.277,1.926,1.926,0,0,1,.818.8h2.835a4.335,4.335,0,0,0-1.718-2.534A5.415,5.415,0,0,0-3651.117-624.673Zm22.215.12v10.531h6.449v-2.055h-3.885v-2.31h3.435v-1.981h-3.435v-2.13h3.885v-2.055Zm-8.715,4.036,0,0,4.288,6.492h2.565v-10.531h-2.565v6.526l-4.29-6.526h-2.566v10.531h2.566v-6.495Zm-6.99-4.036v10.531h2.565v-10.531Zm-20.145,4.036,0,0,4.288,6.492h2.565v-10.531h-2.565v6.526l-4.29-6.526h-2.565v10.531h2.565v-6.495Zm-10.68-4.036v10.531h6.45v-2.055h-3.885v-2.31h3.435v-1.981h-3.435v-2.13h3.885v-2.055Zm36.495-12.12a5.494,5.494,0,0,0-2.737.682,4.846,4.846,0,0,0-1.883,1.906,5.687,5.687,0,0,0-.675,2.782,5.648,5.648,0,0,0,.675,2.775,4.86,4.86,0,0,0,1.883,1.9,5.487,5.487,0,0,0,2.737.682,5.292,5.292,0,0,0,3.21-.982,4.75,4.75,0,0,0,1.785-2.693h-2.82a2.3,2.3,0,0,1-.893,1.005,2.519,2.519,0,0,1-1.312.345,2.463,2.463,0,0,1-1.921-.825,3.208,3.208,0,0,1-.734-2.205,3.207,3.207,0,0,1,.734-2.2,2.461,2.461,0,0,1,1.921-.825,2.519,2.519,0,0,1,1.312.345,2.291,2.291,0,0,1,.893,1.005h2.82a4.782,4.782,0,0,0-1.785-2.7A5.261,5.261,0,0,0-3638.938-636.674Zm-30.51,0a5.5,5.5,0,0,0-2.738.682,4.848,4.848,0,0,0-1.882,1.906,5.687,5.687,0,0,0-.675,2.782,5.648,5.648,0,0,0,.675,2.775,4.863,4.863,0,0,0,1.882,1.9,5.487,5.487,0,0,0,2.738.682,5.293,5.293,0,0,0,3.21-.982,4.745,4.745,0,0,0,1.784-2.693h-2.819a2.3,2.3,0,0,1-.893,1.005,2.519,2.519,0,0,1-1.312.345,2.462,2.462,0,0,1-1.92-.825,3.208,3.208,0,0,1-.734-2.205,3.207,3.207,0,0,1,.734-2.2,2.46,2.46,0,0,1,1.92-.825,2.519,2.519,0,0,1,1.312.345,2.29,2.29,0,0,1,.893,1.005h2.819a4.777,4.777,0,0,0-1.784-2.7A5.262,5.262,0,0,0-3669.448-636.674Zm39.645,6,0,0,3.539,4.647h3.135l-4.229-5.37,4.079-5.16h-3.015l-3.51,4.62v-4.62h-2.565v10.53h2.565v-4.65Zm-22.11-5.88v10.53h6.45v-2.055h-3.885v-2.31h3.435v-1.98h-3.435v-2.13h3.885v-2.055Zm-8.4,6.195h3.99v4.335h2.565v-10.53h-2.565v4.125h-3.99v-4.125h-2.565v10.53h2.565v-4.334Z" transform="translate(3760 1293)" fill="#fff"/>
  </g>
</svg>
