<svg xmlns="http://www.w3.org/2000/svg" width="146" height="148" viewBox="0 0 146 148">
  <g id="Group_531" data-name="Group 531" transform="translate(-193 -451)">
    <g id="Group_466" data-name="Group 466" transform="translate(157 35)">
      <g id="Group_4" data-name="Group 4" transform="translate(-1 -257)">
        <rect id="Rectangle_1" data-name="Rectangle 1" width="146" height="148" rx="20" transform="translate(37 673)" fill="#06a"/>
      </g>
      <g id="Group_151" data-name="Group 151" transform="translate(24 -63)">
        <text id="Garage" transform="translate(85 605)" fill="#fff" font-size="22" font-family="Poppins-Regular, Poppins"><tspan x="-41.789" y="0">Garage</tspan></text>
      </g>
    </g>
    <g id="Group_487" data-name="Group 487" transform="translate(-3.705 1.219)">
      <path id="Garage_icon" data-name="Garage icon" d="M0,63.614V23.734a8.045,8.045,0,0,1,5.062-7.48L38.8,2.768a3.981,3.981,0,0,1,3,0L75.529,16.254a8.058,8.058,0,0,1,5.062,7.48v39.88a3.015,3.015,0,0,1-3.022,3.022H71.524A3.015,3.015,0,0,1,68.5,63.614V30.37a4.025,4.025,0,0,0-4.03-4.03H16.118a4.025,4.025,0,0,0-4.03,4.03V63.614a3.015,3.015,0,0,1-3.022,3.022H3.022A3.015,3.015,0,0,1,0,63.614Z" transform="translate(229.705 475.306)" fill="#fff"/>
      <path id="screwdriver-wrench-solid" d="M5.912.367A1.811,1.811,0,0,0,3.525.518L.5,3.54A1.819,1.819,0,0,0,.344,5.927l6.044,7.857a1.815,1.815,0,0,0,1.436.71h4.087l8.235,8.235a5.836,5.836,0,0,0,1.08,6.77l8.462,8.462a2.421,2.421,0,0,0,3.423,0l4.835-4.835a2.421,2.421,0,0,0,0-3.423l-8.462-8.462a5.847,5.847,0,0,0-6.77-1.08L14.48,11.926V7.846a1.8,1.8,0,0,0-.71-1.436ZM1.477,29.915A5.129,5.129,0,1,0,8.73,37.168l8.9-8.9a8.29,8.29,0,0,1-.272-4.918L12.7,18.688ZM38.657,10.868a10.986,10.986,0,0,0-.242-2.3,1.063,1.063,0,0,0-1.828-.453l-4.828,4.828a1.213,1.213,0,0,1-.854.355H26.568a1.212,1.212,0,0,1-1.209-1.209V7.741a1.213,1.213,0,0,1,.355-.854l4.828-4.828A1.063,1.063,0,0,0,30.089.231a11.112,11.112,0,0,0-2.312-.242A10.882,10.882,0,0,0,16.9,10.868v.06l6.445,6.445A8.245,8.245,0,0,1,31.2,19.542l1.186,1.186A10.893,10.893,0,0,0,38.657,10.868ZM7.831,32.628a1.813,1.813,0,1,1-1.813-1.813A1.809,1.809,0,0,1,7.831,32.628Z" transform="translate(250.733 503.903)" fill="#fff"/>
    </g>
  </g>
</svg>
