<svg xmlns="http://www.w3.org/2000/svg" width="146" height="148" viewBox="0 0 146 148">
  <g id="Group_530" data-name="Group 530" transform="translate(-37 -451)">
    <g id="Group_465" data-name="Group 465" transform="translate(1 35)">
      <g id="Group_4" data-name="Group 4" transform="translate(-1 -257)">
        <rect id="Rectangle_1" data-name="Rectangle 1" width="146" height="148" rx="20" transform="translate(37 673)" fill="#06a"/>
      </g>
      <g id="Group_151" data-name="Group 151" transform="translate(24 -63)">
        <text id="_" data-name="គ្រឿងបន្លាស់" transform="translate(85 605)" fill="#fff" font-size="22" font-family="KhmerOSSiemreap, Khmer OS Siemreap"><tspan x="-54.785" y="0">គ្រឿងបន្លាស់</tspan></text>
      </g>
    </g>
    <path id="cart-shopping-solid" d="M0,3.037A3.03,3.03,0,0,1,3.037,0H8.8a7.088,7.088,0,0,1,6.4,4.05H67.211A5.059,5.059,0,0,1,72.1,10.428L66.908,29.7a9.126,9.126,0,0,1-8.8,6.745H21.6l.683,3.607a3.049,3.049,0,0,0,2.987,2.468H61.757a3.037,3.037,0,1,1,0,6.074H25.272a9.1,9.1,0,0,1-8.947-7.4L9.8,6.9a1.007,1.007,0,0,0-1-.823H3.037A3.03,3.03,0,0,1,0,3.037ZM16.2,58.72a6.074,6.074,0,1,1,6.074,6.074A6.074,6.074,0,0,1,16.2,58.72ZM58.72,52.645a6.074,6.074,0,1,1-6.074,6.074A6.074,6.074,0,0,1,58.72,52.645Z" transform="translate(70 479)" fill="#fff"/>
  </g>
</svg>
